HIERARCHY
ROOT Hips
{
	OFFSET -0.001795 -0.223333 0.028219
	CHANNELS 6 Xposition Yposition Zposition Zrotation Yrotation Xrotation 
	JOINT LeftUpLeg
	{
		OFFSET 0.069520 -0.091406 -0.006815
		CHANNELS 3 Zrotation Yrotation Xrotation
		JOINT LeftLeg
		{
			OFFSET 0.034277 -0.375199 -0.004496
			CHANNELS 3 Zrotation Yrotation Xrotation
			JOINT LeftFoot
			{
				OFFSET -0.013596 -0.397961 -0.043693
				CHANNELS 3 Zrotation Yrotation Xrotation
				JOINT LeftToe
				{
					OFFSET 0.026358 -0.055791 0.119288
					CHANNELS 3 Zrotation Yrotation Xrotation
					End Site
					{
						OFFSET 0.000000 0.000000 0.000000
					}
				}
			}
		}
	}
	JOINT RightUpLeg
	{
		OFFSET -0.067670 -0.090522 -0.004320
		CHANNELS 3 Zrotation Yrotation Xrotation
		JOINT RightLeg
		{
			OFFSET -0.038290 -0.382569 -0.008850
			CHANNELS 3 Zrotation Yrotation Xrotation
			JOINT RightFoot
			{
				OFFSET 0.015774 -0.398415 -0.042312
				CHANNELS 3 Zrotation Yrotation Xrotation
				JOINT RightToe
				{
					OFFSET -0.025372 -0.048144 0.123348
					CHANNELS 3 Zrotation Yrotation Xrotation
					End Site
					{
						OFFSET 0.000000 0.000000 0.000000
					}
				}
			}
		}
	}
	JOINT Spine
	{
		OFFSET -0.002533 0.108963 -0.026696
		CHANNELS 3 Zrotation Yrotation Xrotation
		JOINT Spine1
		{
			OFFSET 0.005487 0.135180 0.001092
			CHANNELS 3 Zrotation Yrotation Xrotation
			JOINT Spine2
			{
				OFFSET 0.001457 0.052922 0.025425
				CHANNELS 3 Zrotation Yrotation Xrotation
				JOINT Neck
				{
					OFFSET -0.002778 0.213870 -0.042857
					CHANNELS 3 Zrotation Yrotation Xrotation
					JOINT Head
					{
						OFFSET 0.005152 0.064970 0.051349
						CHANNELS 3 Zrotation Yrotation Xrotation
						End Site
						{
							OFFSET 0.000000 0.000000 0.000000
						}
					}
				}
				JOINT LeftShoulder
				{
					OFFSET 0.078845 0.121749 -0.034090
					CHANNELS 3 Zrotation Yrotation Xrotation
					JOINT LeftArm
					{
						OFFSET 0.090977 0.030469 -0.008868
						CHANNELS 3 Zrotation Yrotation Xrotation
						JOINT LeftForeArm
						{
							OFFSET 0.259612 -0.012772 -0.027456
							CHANNELS 3 Zrotation Yrotation Xrotation
							JOINT LeftHand
							{
								OFFSET 0.249234 0.008986 -0.001171
								CHANNELS 3 Zrotation Yrotation Xrotation
								End Site
								{
									OFFSET 0.000000 0.000000 0.000000
								}
							}
						}
					}
				}
				JOINT RightShoulder
				{
					OFFSET -0.081759 0.118833 -0.038615
					CHANNELS 3 Zrotation Yrotation Xrotation
					JOINT RightArm
					{
						OFFSET -0.096012 0.032551 -0.009143
						CHANNELS 3 Zrotation Yrotation Xrotation
						JOINT RightForeArm
						{
							OFFSET -0.253742 -0.013329 -0.021401
							CHANNELS 3 Zrotation Yrotation Xrotation
							JOINT RightHand
							{
								OFFSET -0.255298 0.007772 -0.005559
								CHANNELS 3 Zrotation Yrotation Xrotation
								End Site
								{
									OFFSET 0.000000 0.000000 0.000000
								}
							}
						}
					}
				}
			}
		}
	}
}
MOTION
Frames: 13
Frame Time: 0.050000
0.000000 0.942407 0.000000 -2.812048 -1.300907 3.779702 9.528573 -0.219291 -7.390466 -6.122306 0.730504 2.208750 -15.322735 -21.957087 11.987965 0.000000 0.000000 0.000000 -7.388782 0.687768 -11.758796 2.055274 0.011620 9.581967 -9.494862 -21.975285 27.411577 0.000000 0.000000 0.000000 2.000809 -0.783541 12.788259 -1.851499 0.864752 4.973841 -2.498737 4.602815 4.083020 10.243764 -5.222277 -13.191282 0.000000 0.000000 0.000000 -30.137262 -14.472305 4.660630 -42.154614 -0.441909 -4.146274 -16.070773 -50.376345 9.038251 0.000000 0.000000 0.000000 32.046502 9.397983 5.526020 48.660013 5.260425 -3.250612 -0.978369 46.771275 1.916591 0.000000 0.000000 0.000000 
-0.017621 0.940893 -0.001087 -2.931635 -2.408338 4.191115 10.213154 -0.162764 -6.896115 -5.092523 0.593392 0.954053 -14.503357 -21.291714 11.105626 0.000000 0.000000 0.000000 -6.529407 0.770883 -11.638924 2.398546 -0.052703 8.696445 -8.295503 -20.593715 23.972281 0.000000 0.000000 0.000000 2.401108 -0.817036 12.635081 -0.997971 0.437160 5.567153 -2.930270 3.431599 2.960988 9.602876 -5.217845 -11.511653 0.000000 0.000000 0.000000 -30.726129 -13.332082 4.534038 -42.664279 -1.746268 -3.877156 -15.809294 -51.312667 9.294322 0.000000 0.000000 0.000000 31.526180 9.165004 4.545194 49.340485 4.255892 -3.330319 1.177599 48.586796 2.709561 0.000000 0.000000 0.000000 
-0.034955 0.942239 -0.003650 -2.516498 -3.177146 3.967456 10.674439 -0.107804 -7.397523 -4.708242 0.569476 2.335890 -14.263997 -20.588205 11.491503 0.000000 0.000000 0.000000 -5.546791 0.802119 -10.930608 2.123502 -0.021736 7.601646 -8.363049 -20.786965 22.163932 0.000000 0.000000 0.000000 2.915208 -0.861326 12.472275 -0.393339 0.136552 5.368837 -4.647519 3.253987 3.479935 9.293044 -5.262947 -10.437057 0.000000 0.000000 0.000000 -32.651434 -14.516453 5.502435 -40.033987 -4.126700 -2.930591 -13.919628 -51.379642 8.461176 0.000000 0.000000 0.000000 31.407898 10.105346 5.138866 50.230480 4.637666 -3.250324 1.263023 48.302558 2.711695 0.000000 0.000000 0.000000 
-0.051610 0.942607 -0.008052 -2.669490 -4.184031 4.398555 11.049424 -0.061277 -7.524997 -3.166455 0.366892 1.826256 -13.676581 -19.676927 11.415604 0.000000 0.000000 0.000000 -4.087232 0.921457 -11.248992 1.914431 0.005888 6.940153 -8.091239 -20.516736 20.287800 0.000000 0.000000 0.000000 3.416309 -0.958078 13.115125 -0.491963 0.213194 5.805975 -4.680631 2.190670 2.934657 9.254351 -5.550900 -9.190020 0.000000 0.000000 0.000000 -32.581827 -15.419755 6.853957 -40.271843 -6.176926 -2.479244 -13.662386 -53.391330 8.913329 0.000000 0.000000 0.000000 32.499050 11.471328 5.431776 49.065957 5.451865 -2.605436 0.480648 49.373706 2.183945 0.000000 0.000000 0.000000 
-0.066911 0.944645 -0.013945 -2.765751 -5.810178 4.188447 11.396332 0.036382 -8.226842 -1.909932 0.186543 3.715657 -12.958565 -18.361057 11.614523 0.000000 0.000000 0.000000 -3.242146 1.006888 -11.533854 2.213214 -0.021257 6.928316 -6.986787 -19.078945 19.554486 0.000000 0.000000 0.000000 3.382695 -1.013738 14.688753 0.021993 -0.019838 5.184688 -5.155190 2.164409 3.599493 8.715446 -5.228771 -9.306778 0.000000 0.000000 0.000000 -33.360148 -17.656855 8.936260 -38.463698 -10.587749 -1.229993 -9.316001 -55.256672 7.116968 0.000000 0.000000 0.000000 31.099239 12.954155 6.102615 50.400996 7.184611 -1.915398 -0.897214 49.928892 1.517949 0.000000 0.000000 0.000000 
-0.079611 0.946718 -0.020038 -3.200783 -7.903418 4.521734 12.145436 0.188299 -8.889346 -1.695798 0.159294 5.013837 -10.856713 -14.999943 11.426361 0.000000 0.000000 0.000000 -1.924384 1.138923 -11.961945 2.166507 -0.000416 6.603809 -5.534385 -17.039108 18.067248 0.000000 0.000000 0.000000 3.392065 -1.048141 16.118148 -0.196517 0.143022 5.018280 -4.558828 1.728169 3.177839 7.536615 -4.508698 -9.200250 0.000000 0.000000 0.000000 -32.935121 -18.894139 10.525398 -38.767394 -14.950210 -0.100153 -6.012269 -54.990963 5.552996 0.000000 0.000000 0.000000 30.941402 13.954170 6.081846 49.891843 7.976225 -1.324535 -0.703693 50.223776 1.366305 0.000000 0.000000 0.000000 
-0.089441 0.948026 -0.025124 -3.241608 -9.126311 5.215703 12.044017 0.234655 -9.639093 -2.109099 0.242872 5.316463 -7.392335 -9.286619 11.242317 0.000000 0.000000 0.000000 -1.271929 1.293289 -12.973542 2.370183 -0.015986 6.556378 -5.070147 -16.436524 17.506864 0.000000 0.000000 0.000000 3.212064 -1.038715 17.142452 -0.129587 0.133719 4.674712 -4.791511 1.310913 3.314429 7.023243 -4.208910 -9.246467 0.000000 0.000000 0.000000 -31.927296 -20.630469 12.124888 -38.756681 -19.186775 1.065437 -1.021159 -55.547312 3.146409 0.000000 0.000000 0.000000 31.122208 15.003394 6.404410 49.173816 8.980013 -0.782970 -2.426917 51.073320 0.462041 0.000000 0.000000 0.000000 
-0.096581 0.949067 -0.029010 -3.409451 -10.653826 5.937608 12.129125 0.297599 -9.829124 -4.148562 0.618763 4.682017 -2.053183 -0.343131 11.312194 0.000000 0.000000 0.000000 -0.557709 1.416965 -13.555920 2.393638 -0.017179 6.093278 -4.305003 -15.272501 16.435358 0.000000 0.000000 0.000000 2.702270 -0.935090 17.778895 -0.355610 0.282156 4.507531 -4.306567 1.060369 3.272257 5.535303 -3.299156 -8.912079 0.000000 0.000000 0.000000 -31.416242 -22.310841 13.777906 -37.866415 -23.481194 2.183327 3.255703 -54.030565 1.012424 0.000000 0.000000 0.000000 30.589225 16.069119 6.641098 48.031253 10.280034 -0.109926 -3.860934 51.562985 -0.370979 0.000000 0.000000 0.000000 
-0.101677 0.949373 -0.031239 -3.647277 -11.555363 6.652103 12.058626 0.318444 -9.964627 -6.341213 0.968778 2.933948 3.643139 9.372228 13.181367 0.000000 0.000000 0.000000 -0.134744 1.516151 -14.079918 2.099504 0.002813 5.344629 -3.002164 -13.405433 16.732632 0.000000 0.000000 0.000000 2.374641 -0.858777 17.929089 -0.143602 0.197270 4.568396 -4.393187 0.719993 2.997531 5.188131 -3.017557 -9.579338 0.000000 0.000000 0.000000 -31.379985 -23.764407 15.185096 -36.624912 -26.952736 3.019936 7.460835 -51.650478 -0.998690 0.000000 0.000000 0.000000 30.520419 17.292741 7.151802 47.008943 11.251174 0.391790 -6.245625 50.892423 -1.572129 0.000000 0.000000 0.000000 
-0.105404 0.949671 -0.032255 -3.768751 -12.308048 7.184904 12.013574 0.328120 -9.825742 -8.198410 1.198096 0.744767 8.507332 16.991460 16.029226 0.000000 0.000000 0.000000 0.322471 1.611210 -14.537615 1.935256 0.024207 5.196601 -2.595657 -12.774540 16.326429 0.000000 0.000000 0.000000 1.978997 -0.768549 18.026480 -0.366268 0.321007 4.240052 -4.191962 0.387458 3.382361 4.376458 -2.515156 -9.758286 0.000000 0.000000 0.000000 -31.397842 -25.366722 16.768051 -34.760933 -30.112037 3.536959 10.579642 -49.295392 -2.312020 0.000000 0.000000 0.000000 30.267004 18.071074 7.346914 45.966095 12.566337 0.937948 -8.808607 49.341992 -2.735570 0.000000 0.000000 0.000000 
-0.108232 0.949490 -0.032199 -4.021528 -13.000641 7.839318 11.975343 0.332864 -9.637553 -9.471695 1.294707 -1.487049 12.894093 23.095671 18.593714 0.000000 0.000000 0.000000 0.554648 1.683195 -14.913223 1.848803 0.017381 4.609583 -1.616804 -11.352657 16.510019 0.000000 0.000000 0.000000 1.802652 -0.719257 18.068405 -0.168088 0.232077 4.050161 -4.343428 0.099324 3.396044 3.611461 -1.989113 -10.359568 0.000000 0.000000 0.000000 -30.994865 -26.522768 17.817231 -33.403289 -32.892175 4.015628 12.596573 -46.770698 -3.013511 0.000000 0.000000 0.000000 29.695946 19.184195 7.820747 45.099236 13.681614 1.394748 -11.159144 47.237155 -3.648594 0.000000 0.000000 0.000000 
-0.110407 0.949422 -0.031591 -4.127338 -13.374498 8.341945 12.042005 0.351916 -9.876767 -9.184702 1.250604 -1.704705 13.152092 23.374006 18.881271 0.000000 0.000000 0.000000 0.614511 1.722224 -15.154530 2.020597 -0.016357 4.125986 -1.265859 -10.875615 16.620753 0.000000 0.000000 0.000000 1.169509 -0.589624 18.374037 -0.175258 0.236237 3.797641 -4.377796 -0.142375 3.555632 2.422341 -1.169659 -11.294031 0.000000 0.000000 0.000000 -30.507233 -28.102093 19.072268 -32.225095 -35.531499 4.446592 13.980034 -44.387370 -3.383597 0.000000 0.000000 0.000000 29.462988 20.326739 8.426091 43.751640 14.980886 1.837211 -14.079435 43.153845 -4.390747 0.000000 0.000000 0.000000 
-0.112021 0.949291 -0.030681 -4.382496 -13.472886 8.940131 12.099682 0.352089 -9.991128 -8.655248 1.147583 -2.334355 13.282045 23.513123 19.051013 0.000000 0.000000 0.000000 0.785685 1.729540 -15.124455 1.952696 -0.036111 3.342075 -0.536447 -9.624023 16.415036 0.000000 0.000000 0.000000 0.771346 -0.509520 18.681890 -0.498695 0.396826 3.672282 -3.885549 -0.329166 3.758295 1.877058 -0.801494 -12.012116 0.000000 0.000000 0.000000 -29.420536 -29.746434 20.138543 -31.746397 -38.229698 5.049385 15.878535 -42.082653 -3.888410 0.000000 0.000000 0.000000 29.015741 21.725448 9.220371 42.730154 16.120186 2.195451 -17.160654 38.172582 -4.816833 0.000000 0.000000 0.000000 
